<?xml version="1.0" standalone="no"?>
<!DOCTYPE svg PUBLIC "-//W3C//DTD SVG 20010904//EN"
 "http://www.w3.org/TR/2001/REC-SVG-20010904/DTD/svg10.dtd">
<svg version="1.0" xmlns="http://www.w3.org/2000/svg"
 width="512.000000pt" height="512.000000pt" viewBox="0 0 512.000000 512.000000"
 preserveAspectRatio="xMidYMid meet">

<g transform="translate(0.000000,512.000000) scale(0.100000,-0.100000)"
fill="#000000" stroke="none">
<path d="M2380 5114 c-374 -43 -607 -110 -893 -256 -628 -320 -1089 -928
-1226 -1618 -37 -188 -43 -270 -46 -595 -3 -351 5 -534 31 -682 124 -737 589
-1371 1252 -1706 234 -119 467 -193 732 -234 159 -24 501 -24 660 0 1112 171
1943 1069 2008 2174 12 197 7 746 -7 853 -31 226 -86 435 -166 625 -319 761
-1006 1296 -1825 1420 -100 15 -445 28 -520 19z m72 -340 l3 -126 33 -29 c37
-33 93 -39 130 -13 42 29 52 65 52 184 l0 110 43 0 c50 -1 172 -16 244 -30
l51 -11 -30 -112 c-33 -124 -32 -161 8 -198 19 -18 37 -24 71 -24 66 0 92 34
128 168 15 59 32 107 36 107 22 0 292 -110 307 -125 2 -2 -24 -53 -59 -115
-60 -107 -62 -112 -51 -149 17 -55 45 -76 102 -76 61 0 72 10 140 130 30 52
57 95 61 95 10 0 157 -106 217 -158 l53 -45 -79 -81 c-44 -45 -85 -91 -91
-103 -39 -77 44 -173 125 -143 16 6 66 48 112 93 l83 82 36 -40 c37 -43 129
-163 157 -207 l17 -26 -98 -57 c-116 -68 -132 -85 -133 -143 0 -35 6 -49 29
-73 45 -45 87 -40 196 22 49 28 95 53 102 56 22 8 153 -292 135 -308 -4 -3
-47 -16 -97 -29 -143 -37 -175 -61 -175 -130 0 -45 23 -78 67 -96 32 -14 43
-12 150 16 63 17 117 29 119 27 5 -5 32 -184 40 -264 l7 -73 -117 0 c-136 0
-169 -12 -192 -67 -20 -46 -10 -86 28 -118 28 -24 35 -25 155 -25 l125 0 -6
-77 c-8 -84 -35 -255 -42 -262 -2 -2 -49 8 -103 22 -133 36 -165 35 -202 -4
-39 -42 -40 -96 -1 -139 22 -25 47 -36 136 -60 59 -16 111 -31 113 -34 5 -5
-78 -217 -109 -279 l-19 -38 -32 19 c-174 104 -203 115 -250 91 -54 -28 -76
-108 -42 -156 9 -12 60 -48 115 -79 55 -31 100 -58 100 -60 0 -14 -180 -247
-201 -260 -6 -3 -50 33 -98 80 -83 81 -91 86 -131 86 -35 0 -48 -6 -77 -35
-32 -32 -35 -40 -30 -77 5 -35 18 -53 91 -127 l86 -87 -32 -31 c-46 -44 -220
-173 -234 -173 -6 0 -39 47 -72 105 -55 93 -66 105 -100 116 -55 16 -107 -7
-128 -57 -20 -48 -14 -69 53 -182 30 -52 53 -95 51 -97 -24 -21 -274 -125
-301 -125 -10 0 -24 35 -42 106 -16 58 -37 116 -47 129 -47 60 -142 49 -175
-20 -17 -35 -17 -39 11 -148 15 -62 28 -116 27 -122 0 -11 -94 -30 -196 -39
-39 -4 -85 -9 -102 -12 l-33 -5 0 111 c0 133 -13 172 -64 197 -47 22 -101 9
-130 -30 -18 -25 -21 -45 -24 -153 l-4 -124 -51 5 c-102 12 -271 36 -278 41
-4 2 7 58 25 124 l31 120 -20 38 c-26 49 -80 69 -130 48 -45 -19 -59 -43 -91
-164 -18 -67 -32 -102 -41 -102 -27 0 -278 104 -301 126 -2 1 22 47 54 101 41
69 58 108 58 133 0 77 -74 127 -145 97 -29 -12 -46 -33 -93 -116 -32 -55 -63
-101 -70 -101 -14 0 -187 128 -234 173 l-32 31 87 88 c85 85 88 90 88 134 0
39 -5 50 -33 75 -25 22 -42 29 -73 29 -39 0 -48 -6 -131 -87 l-90 -88 -45 50
c-44 49 -163 208 -163 218 0 3 45 30 100 61 55 31 106 67 115 79 34 48 12 128
-42 156 -47 24 -76 13 -250 -91 l-32 -19 -19 38 c-31 62 -114 274 -109 279 2
3 54 18 113 34 89 24 114 35 137 60 41 46 35 111 -17 152 -29 24 -71 22 -187
-9 -54 -14 -101 -24 -104 -22 -7 8 -33 169 -41 257 l-7 82 125 0 c110 0 128 2
151 20 38 30 52 80 33 123 -23 55 -56 67 -192 67 l-117 0 7 73 c8 80 35 259
40 264 2 2 56 -10 119 -27 107 -28 118 -30 150 -16 19 7 42 24 51 37 22 32 20
91 -4 121 -23 30 -46 39 -160 69 -47 12 -89 25 -93 29 -13 11 109 309 126 310
5 0 53 -25 106 -55 117 -66 156 -71 202 -26 23 24 29 38 29 73 -1 58 -17 75
-133 142 l-97 57 17 31 c26 43 181 238 191 238 4 0 41 -34 82 -76 41 -42 89
-82 106 -90 85 -36 174 58 133 139 -6 12 -47 58 -91 103 l-79 81 53 45 c60 52
207 158 217 158 4 0 31 -43 61 -95 63 -110 75 -124 121 -131 44 -7 84 9 105
42 30 45 22 83 -39 191 -31 56 -57 103 -57 106 0 11 284 127 310 127 4 0 20
-48 35 -107 36 -134 62 -168 128 -168 34 0 52 6 71 24 40 37 41 74 8 198 l-30
112 51 11 c83 17 168 27 229 29 l56 1 4 -126z m-1675 -3525 c186 -223 458
-436 729 -572 310 -155 626 -234 980 -244 426 -12 791 69 1154 259 321 167
545 356 803 678 l28 35 -27 -55 c-37 -76 -113 -196 -181 -288 -72 -96 -264
-295 -363 -375 -302 -245 -682 -406 -1080 -458 -121 -16 -397 -16 -520 0 -560
73 -1060 353 -1409 791 -88 110 -165 227 -210 320 l-32 65 28 -35 c16 -19 61
-73 100 -121z"/>
<path d="M2492 4345 c-38 -32 -48 -72 -28 -118 15 -37 58 -67 96 -67 37 0 81
30 96 67 42 100 -80 188 -164 118z"/>
<path d="M1942 4242 c-251 -104 -282 -119 -278 -137 3 -11 57 -144 120 -295
76 -182 119 -274 128 -272 14 4 571 233 576 237 8 7 -238 580 -250 582 -7 1
-140 -50 -296 -115z m232 -256 c20 -49 34 -91 31 -94 -7 -8 -188 -83 -191 -80
-11 12 -75 190 -70 195 13 13 181 79 187 74 3 -3 23 -46 43 -95z"/>
<path d="M2861 4339 c-5 -13 -59 -145 -120 -293 -61 -148 -110 -270 -109 -271
5 -4 562 -233 576 -237 8 -2 53 92 128 272 63 151 117 284 119 295 5 18 -25
32 -270 133 -151 63 -284 116 -295 119 -14 4 -22 -1 -29 -18z m315 -332 c5 -5
-58 -177 -71 -195 -3 -3 -178 69 -188 78 -4 3 7 40 24 81 17 41 35 84 39 96 9
21 9 21 99 -16 50 -21 94 -41 97 -44z"/>
<path d="M1464 3926 c-68 -30 -86 -111 -36 -166 38 -43 86 -49 132 -18 70 47
62 152 -15 184 -41 17 -42 17 -81 0z"/>
<path d="M3570 3922 c-82 -40 -81 -145 2 -188 66 -34 148 18 148 95 0 46 -23
79 -66 97 -42 18 -42 18 -84 -4z"/>
<path d="M1090 3385 c-68 -163 -121 -297 -119 -299 2 -2 76 -33 164 -69 88
-36 219 -90 291 -120 l132 -55 122 295 c67 162 120 296 118 297 -1 2 -131 56
-288 121 -157 64 -288 119 -291 121 -4 2 -62 -129 -129 -291z m425 -67 c6 -5
-12 -54 -54 -150 l-20 -47 -90 38 c-50 21 -94 40 -97 44 -4 3 8 41 26 84 52
125 37 117 140 74 49 -21 92 -40 95 -43z"/>
<path d="M3620 3560 c-157 -66 -289 -121 -294 -123 -5 -2 46 -136 113 -299
l123 -296 132 55 c72 30 203 84 291 120 88 36 162 67 164 69 3 3 -239 595
-243 593 0 0 -129 -54 -286 -119z m215 -260 c20 -50 34 -94 31 -97 -3 -4 -47
-23 -97 -44 l-90 -38 -20 47 c-42 96 -60 145 -54 150 10 10 180 79 186 76 3
-2 23 -44 44 -94z"/>
<path d="M2512 3625 c-64 -28 -77 -117 -26 -168 59 -59 161 -29 179 53 9 42
-21 99 -61 116 -41 17 -50 17 -92 -1z"/>
<path d="M2423 3300 c-103 -11 -234 -43 -325 -80 -221 -90 -367 -248 -384
-416 -23 -222 196 -440 526 -524 502 -127 1058 67 1155 404 60 209 -102 432
-396 546 -155 60 -395 89 -576 70z m402 -239 c182 -48 339 -156 362 -249 17
-65 1 -106 -66 -172 -246 -246 -876 -246 -1122 0 -35 35 -61 70 -67 93 -37
134 138 279 408 338 119 26 369 21 485 -10z"/>
<path d="M2184 2861 c-36 -22 -58 -75 -48 -115 3 -14 20 -37 36 -51 l30 -25
357 0 c344 0 359 1 384 20 38 30 52 80 33 123 -27 66 -35 67 -418 67 -321 0
-345 -1 -374 -19z"/>
<path d="M994 2846 c-38 -38 -44 -77 -20 -125 30 -58 119 -69 167 -22 47 48
36 137 -22 167 -48 24 -87 18 -125 -20z"/>
<path d="M4005 2868 c-37 -20 -55 -52 -55 -96 0 -108 144 -143 195 -47 48 88
-53 191 -140 143z"/>
<path d="M1255 2580 c-182 -76 -280 -122 -279 -131 1 -16 224 -560 234 -572 5
-6 574 223 587 237 9 8 -236 581 -249 583 -7 0 -139 -52 -293 -117z m227 -251
c21 -50 36 -95 33 -99 -5 -9 -185 -84 -189 -79 -9 11 -78 190 -75 193 7 7 174
75 184 76 6 0 27 -41 47 -91z"/>
<path d="M3551 2678 c-5 -13 -59 -144 -121 -292 -61 -148 -109 -270 -107 -272
10 -10 581 -243 585 -239 15 15 241 580 235 586 -9 8 -565 239 -576 239 -4 0
-11 -10 -16 -22z m227 -294 c48 -20 89 -38 91 -40 3 -3 -66 -182 -75 -193 -4
-4 -184 70 -189 79 -6 10 67 190 77 190 5 0 48 -16 96 -36z"/>
<path d="M2498 2100 c-38 -29 -52 -72 -39 -113 16 -46 41 -68 88 -73 50 -6 84
12 106 59 16 31 17 42 7 72 -23 70 -107 99 -162 55z"/>
<path d="M1877 1959 c-73 -166 -219 -530 -215 -534 6 -6 581 -245 584 -242 12
12 241 584 236 589 -8 7 -536 227 -565 235 -13 4 -23 -7 -40 -48z m243 -265
c47 -19 86 -37 88 -38 4 -4 -67 -178 -76 -188 -7 -7 -169 56 -186 72 -11 11
62 190 78 190 6 0 50 -16 96 -36z"/>
<path d="M2915 1891 c-193 -82 -279 -122 -277 -132 7 -34 236 -579 242 -577
332 135 580 243 579 252 0 6 -53 137 -117 291 -75 178 -123 280 -132 282 -8 1
-141 -52 -295 -116z m230 -251 c23 -54 34 -94 29 -100 -17 -16 -179 -79 -186
-72 -10 10 -80 183 -76 188 9 8 165 72 179 73 11 1 28 -27 54 -89z"/>
<path d="M1429 1791 c-23 -23 -29 -38 -29 -71 0 -35 6 -48 35 -77 32 -32 39
-35 78 -30 135 18 125 206 -11 207 -35 0 -49 -6 -73 -29z"/>
<path d="M3557 1809 c-24 -14 -47 -62 -47 -98 0 -20 11 -42 29 -63 25 -28 36
-33 76 -33 40 0 51 5 76 33 63 71 20 172 -73 172 -24 0 -51 -5 -61 -11z"/>
<path d="M2513 1374 c-39 -19 -67 -74 -58 -114 8 -37 48 -77 85 -85 41 -9 95
19 114 60 9 18 16 38 16 45 0 30 -34 80 -65 94 -41 20 -52 20 -92 0z"/>
</g>
</svg>
